{
    "asset" : {
        "generator" : "Khronos glTF Blender I/O v1.7.33",
        "version" : "2.0"
    },
    "scene" : 0,
    "scenes" : [
        {
            "name" : "Scene",
            "nodes" : [
                0
            ]
        }
    ],
    "nodes" : [
        {
            "mesh" : 0,
            "name" : "ship_wreck_8angles",
            "rotation" : [
                0,
                0.7069685459136963,
                0,
                0.7072449922561646
            ],
            "translation" : [
                0.005322795361280441,
                0,
                0.014456731267273426
            ]
        }
    ],
    "materials" : [
        {
            "name" : "wood.008",
            "pbrMetallicRoughness" : {
                "baseColorFactor" : [
                    0.729411780834198,
                    0.4627451002597809,
                    0.27843138575553894,
                    1
                ],
                "metallicFactor" : 0.25,
                "roughnessFactor" : 0.8500000238418579
            }
        },
        {
            "name" : "iron.009",
            "pbrMetallicRoughness" : {
                "baseColorFactor" : [
                    0.3764705955982208,
                    0.3764705955982208,
                    0.3764705955982208,
                    1
                ],
                "metallicFactor" : 0.25,
                "roughnessFactor" : 0.8500000238418579
            }
        },
        {
            "name" : "woodDark.001",
            "pbrMetallicRoughness" : {
                "baseColorFactor" : [
                    0.5215686559677124,
                    0.3294117748737335,
                    0.19607843458652496,
                    1
                ],
                "metallicFactor" : 0.25,
                "roughnessFactor" : 0.8500000238418579
            }
        },
        {
            "name" : "window.001",
            "pbrMetallicRoughness" : {
                "baseColorFactor" : [
                    0.6627451181411743,
                    0.7372549176216125,
                    0.7686274647712708,
                    1
                ],
                "metallicFactor" : 0.25,
                "roughnessFactor" : 0.8500000238418579
            }
        },
        {
            "name" : "leaves",
            "pbrMetallicRoughness" : {
                "baseColorFactor" : [
                    0.22745098173618317,
                    0.5568627715110779,
                    0.32156863808631897,
                    1
                ],
                "metallicFactor" : 0.25,
                "roughnessFactor" : 0.8500000238418579
            }
        },
        {
            "name" : "_defaultMat.001",
            "pbrMetallicRoughness" : {
                "metallicFactor" : 0,
                "roughnessFactor" : 0.5
            }
        }
    ],
    "meshes" : [
        {
            "name" : "ship_wreck_8angles",
            "primitives" : [
                {
                    "attributes" : {
                        "POSITION" : 0,
                        "NORMAL" : 1,
                        "TEXCOORD_0" : 2
                    },
                    "indices" : 3,
                    "material" : 0
                },
                {
                    "attributes" : {
                        "POSITION" : 4,
                        "NORMAL" : 5,
                        "TEXCOORD_0" : 6
                    },
                    "indices" : 7,
                    "material" : 1
                },
                {
                    "attributes" : {
                        "POSITION" : 8,
                        "NORMAL" : 9,
                        "TEXCOORD_0" : 10
                    },
                    "indices" : 11,
                    "material" : 2
                },
                {
                    "attributes" : {
                        "POSITION" : 12,
                        "NORMAL" : 13,
                        "TEXCOORD_0" : 14
                    },
                    "indices" : 15,
                    "material" : 3
                },
                {
                    "attributes" : {
                        "POSITION" : 16,
                        "NORMAL" : 17,
                        "TEXCOORD_0" : 18
                    },
                    "indices" : 19,
                    "material" : 4
                },
                {
                    "attributes" : {
                        "POSITION" : 20,
                        "NORMAL" : 21,
                        "TEXCOORD_0" : 22
                    },
                    "indices" : 23,
                    "material" : 5
                }
            ]
        }
    ],
    "accessors" : [
        {
            "bufferView" : 0,
            "componentType" : 5126,
            "count" : 4854,
            "max" : [
                1.4250975847244263,
                5.920844554901123,
                3.199540615081787
            ],
            "min" : [
                -1.4250975847244263,
                -1.6243006610827107e-15,
                -4.849648952484131
            ],
            "type" : "VEC3"
        },
        {
            "bufferView" : 1,
            "componentType" : 5126,
            "count" : 4854,
            "type" : "VEC3"
        },
        {
            "bufferView" : 2,
            "componentType" : 5126,
            "count" : 4854,
            "type" : "VEC2"
        },
        {
            "bufferView" : 3,
            "componentType" : 5123,
            "count" : 6534,
            "type" : "SCALAR"
        },
        {
            "bufferView" : 4,
            "componentType" : 5126,
            "count" : 659,
            "max" : [
                0.14164699614048004,
                3.549652576446533,
                2.445124387741089
            ],
            "min" : [
                -0.22800102829933167,
                1.2773983478546143,
                -2.6767499446868896
            ],
            "type" : "VEC3"
        },
        {
            "bufferView" : 5,
            "componentType" : 5126,
            "count" : 659,
            "type" : "VEC3"
        },
        {
            "bufferView" : 6,
            "componentType" : 5126,
            "count" : 659,
            "type" : "VEC2"
        },
        {
            "bufferView" : 7,
            "componentType" : 5123,
            "count" : 966,
            "type" : "SCALAR"
        },
        {
            "bufferView" : 8,
            "componentType" : 5126,
            "count" : 879,
            "max" : [
                1.2250727415084839,
                2.314490556716919,
                3.070770740509033
            ],
            "min" : [
                -1.2250727415084839,
                1.0573984384536743,
                -0.6167500019073486
            ],
            "type" : "VEC3"
        },
        {
            "bufferView" : 9,
            "componentType" : 5126,
            "count" : 879,
            "type" : "VEC3"
        },
        {
            "bufferView" : 10,
            "componentType" : 5126,
            "count" : 879,
            "type" : "VEC2"
        },
        {
            "bufferView" : 11,
            "componentType" : 5123,
            "count" : 1254,
            "type" : "SCALAR"
        },
        {
            "bufferView" : 12,
            "componentType" : 5126,
            "count" : 93,
            "max" : [
                1.150072693824768,
                2.1477649211883545,
                2.440375328063965
            ],
            "min" : [
                -1.150072693824768,
                1.7202647924423218,
                1.5253753662109375
            ],
            "type" : "VEC3"
        },
        {
            "bufferView" : 13,
            "componentType" : 5126,
            "count" : 93,
            "type" : "VEC3"
        },
        {
            "bufferView" : 14,
            "componentType" : 5126,
            "count" : 93,
            "type" : "VEC2"
        },
        {
            "bufferView" : 15,
            "componentType" : 5123,
            "count" : 156,
            "type" : "SCALAR"
        },
        {
            "bufferView" : 16,
            "componentType" : 5126,
            "count" : 514,
            "max" : [
                1.1941678524017334,
                3.038177967071533,
                3.199540615081787
            ],
            "min" : [
                -1.4250975847244263,
                0.5380655527114868,
                -3.963104486465454
            ],
            "type" : "VEC3"
        },
        {
            "bufferView" : 17,
            "componentType" : 5126,
            "count" : 514,
            "type" : "VEC3"
        },
        {
            "bufferView" : 18,
            "componentType" : 5126,
            "count" : 514,
            "type" : "VEC2"
        },
        {
            "bufferView" : 19,
            "componentType" : 5123,
            "count" : 597,
            "type" : "SCALAR"
        },
        {
            "bufferView" : 20,
            "componentType" : 5126,
            "count" : 3,
            "max" : [
                0.20948800444602966,
                1.3764255046844482,
                -4.139648914337158
            ],
            "min" : [
                -0.20948800444602966,
                1.3025588989257812,
                -4.139648914337158
            ],
            "type" : "VEC3"
        },
        {
            "bufferView" : 21,
            "componentType" : 5126,
            "count" : 3,
            "type" : "VEC3"
        },
        {
            "bufferView" : 22,
            "componentType" : 5126,
            "count" : 3,
            "type" : "VEC2"
        },
        {
            "bufferView" : 23,
            "componentType" : 5123,
            "count" : 3,
            "type" : "SCALAR"
        }
    ],
    "bufferViews" : [
        {
            "buffer" : 0,
            "byteLength" : 58248,
            "byteOffset" : 0
        },
        {
            "buffer" : 0,
            "byteLength" : 58248,
            "byteOffset" : 58248
        },
        {
            "buffer" : 0,
            "byteLength" : 38832,
            "byteOffset" : 116496
        },
        {
            "buffer" : 0,
            "byteLength" : 13068,
            "byteOffset" : 155328
        },
        {
            "buffer" : 0,
            "byteLength" : 7908,
            "byteOffset" : 168396
        },
        {
            "buffer" : 0,
            "byteLength" : 7908,
            "byteOffset" : 176304
        },
        {
            "buffer" : 0,
            "byteLength" : 5272,
            "byteOffset" : 184212
        },
        {
            "buffer" : 0,
            "byteLength" : 1932,
            "byteOffset" : 189484
        },
        {
            "buffer" : 0,
            "byteLength" : 10548,
            "byteOffset" : 191416
        },
        {
            "buffer" : 0,
            "byteLength" : 10548,
            "byteOffset" : 201964
        },
        {
            "buffer" : 0,
            "byteLength" : 7032,
            "byteOffset" : 212512
        },
        {
            "buffer" : 0,
            "byteLength" : 2508,
            "byteOffset" : 219544
        },
        {
            "buffer" : 0,
            "byteLength" : 1116,
            "byteOffset" : 222052
        },
        {
            "buffer" : 0,
            "byteLength" : 1116,
            "byteOffset" : 223168
        },
        {
            "buffer" : 0,
            "byteLength" : 744,
            "byteOffset" : 224284
        },
        {
            "buffer" : 0,
            "byteLength" : 312,
            "byteOffset" : 225028
        },
        {
            "buffer" : 0,
            "byteLength" : 6168,
            "byteOffset" : 225340
        },
        {
            "buffer" : 0,
            "byteLength" : 6168,
            "byteOffset" : 231508
        },
        {
            "buffer" : 0,
            "byteLength" : 4112,
            "byteOffset" : 237676
        },
        {
            "buffer" : 0,
            "byteLength" : 1194,
            "byteOffset" : 241788
        },
        {
            "buffer" : 0,
            "byteLength" : 36,
            "byteOffset" : 242984
        },
        {
            "buffer" : 0,
            "byteLength" : 36,
            "byteOffset" : 243020
        },
        {
            "buffer" : 0,
            "byteLength" : 24,
            "byteOffset" : 243056
        },
        {
            "buffer" : 0,
            "byteLength" : 6,
            "byteOffset" : 243080
        }
    ],
    "buffers" : [
        {
            "byteLength" : 243088,
            "uri" : "data:application/octet-stream;base64,"
        }
    ]
}
